<?xml version="1.0" encoding="UTF-8" standalone="no"?>
<svg
   xmlns:dc="http://purl.org/dc/elements/1.1/"
   xmlns:cc="http://creativecommons.org/ns#"
   xmlns:rdf="http://www.w3.org/1999/02/22-rdf-syntax-ns#"
   xmlns:svg="http://www.w3.org/2000/svg"
   xmlns="http://www.w3.org/2000/svg"
   xmlns:sodipodi="http://sodipodi.sourceforge.net/DTD/sodipodi-0.dtd"
   xmlns:inkscape="http://www.inkscape.org/namespaces/inkscape"
   version="1.1"
   id="Layer_1"
   x="0px"
   y="0px"
   width="512px"
   height="512px"
   viewBox="0 0 512 512"
   enable-background="new 0 0 512 512"
   xml:space="preserve"
   sodipodi:docname="icon.svg"
   inkscape:version="0.92.3 (2405546, 2018-03-11)"><metadata
   id="metadata78"><rdf:RDF><cc:Work
       rdf:about=""><dc:format>image/svg+xml</dc:format><dc:type
         rdf:resource="http://purl.org/dc/dcmitype/StillImage" /></cc:Work></rdf:RDF></metadata><defs
   id="defs76"><marker
     inkscape:stockid="Arrow1Lend"
     orient="auto"
     refY="0.0"
     refX="0.0"
     id="Arrow1Lend"
     style="overflow:visible;"
     inkscape:isstock="true"><path
       id="path4620"
       d="M 0.0,0.0 L 5.0,-5.0 L -12.5,0.0 L 5.0,5.0 L 0.0,0.0 z "
       style="fill-rule:evenodd;stroke:#ffffff;stroke-width:1pt;stroke-opacity:1;fill:#000000;fill-opacity:1"
       transform="scale(0.8) rotate(180) translate(12.5,0)" /></marker></defs><sodipodi:namedview
   pagecolor="#ffffff"
   bordercolor="#666666"
   borderopacity="1"
   objecttolerance="10"
   gridtolerance="10"
   guidetolerance="10"
   inkscape:pageopacity="0"
   inkscape:pageshadow="2"
   inkscape:window-width="1920"
   inkscape:window-height="1009"
   id="namedview74"
   showgrid="false"
   inkscape:zoom="1.118665"
   inkscape:cx="259.75693"
   inkscape:cy="214.70603"
   inkscape:window-x="3840"
   inkscape:window-y="1114"
   inkscape:window-maximized="1"
   inkscape:current-layer="Layer_1" />  
<path
   sodipodi:type="spiral"
   style="fill:none;fill-rule:evenodd;stroke:#ffffff;stroke-opacity:1;stroke-width:27.26046124;stroke-miterlimit:4;stroke-dasharray:none;stroke-dashoffset:0"
   id="path3804"
   sodipodi:cx="176.99669"
   sodipodi:cy="199.12709"
   sodipodi:expansion="1"
   sodipodi:revolution="3"
   sodipodi:radius="200.83241"
   sodipodi:argument="-18.312189"
   sodipodi:t0="0"
   d="m 176.99669,199.12709 c 8.65023,5.15429 -2.68016,14.20328 -8.56677,14.37725 -15.95234,0.47144 -23.27936,-18.2589 -20.18773,-31.51079 5.5302,-23.70451 33.05278,-33.2874 54.45481,-25.99821 31.40834,10.69719 43.52579,48.0234 31.80869,77.39883 C 218.88863,272.547 171.45208,287.25253 134.16284,271.01334 87.23814,250.57798 69.924021,192.90188 90.733191,147.72647 115.93588,93.013007 183.91792,73.079601 236.96408,98.486343 299.47713,128.42731 322.0363,206.75393 292.01469,267.66125 257.35355,337.98116 168.65785,363.17036 99.895763,328.52234 21.763914,289.15305 -6.0583183,190.07174 33.224192,113.4594 77.293232,27.51192 186.77183,-2.9455261 271.23115,40.977344 364.99701,89.740055 398.09131,209.62451 349.52368,301.92832"
   transform="matrix(1.3451885,0,0,1.4361495,-5.1659835,-8.9676268)" /></svg>